# xmcd
#
# Track frame offsets: 
#        150
#        16815
#        31984
#        51713
#        72067
#        86255
#        99395
#        120462
#        137321
#        149148
#        164608
#        177834
#        194999
#        212071
#        229989
#        241004
#        259185
#        285457
#
# Disc length: 4035 seconds
#
# Revision: 7
# Processed by: cddbd v1.5.2PL0 Copyright (c) Steve Scherf et al.
# Submitted via: ExactAudioCopyFreeDBPlugin 1.0
#
DISCID=050fc112
DTITLE=Various Artist - Blind Pig Records 25th Aniversary Collection [disc 2]
DYEAR=2002
DGENRE=Blues
TTITLE0=John Mooney - Gone to Hell
TTITLE1=Chris Thomas King - Cain
TTITLE2=Bill Perry - Pressure
TTITLE3=Chicago Rhythm and Blues Kings - Help Wanted
TTITLE4=Jimmy Thackery and Joe Louis Walker - If This Is Love
TTITLE5=Lloyd Jones - Love Gotcha
TTITLE6=Studebaker John and The Hawks - Here No More
TTITLE7=Chubby Carrier - Who Stole The Hot Sauce
TTITLE8=Tommy Castro and Delbert Mcclinton - Don't Turn Your Heater Down
TTITLE9=Johnny Dyer - Slippin' and Slidin'
TTITLE10=Chris Cain - Movin' Back to Memphis
TTITLE11=Mitch Woods and His Rocket 88S - Broke
TTITLE12=Pee Wee Crayton - Early Hours
TTITLE13=Norton Buffalo - Is It Love
TTITLE14=Jonny Shines - Peace in Hell
TTITLE15=Joanna Connor - Nothin' but the Blues
TTITLE16=Pinetop Perkins - Ida B.
TTITLE17=Coco Montoya - Fear No Evil
EXTD=YEAR: 2001
EXTT0=
EXTT1=
EXTT2=
EXTT3=
EXTT4=
EXTT5=
EXTT6=
EXTT7=
EXTT8=
EXTT9=
EXTT10=
EXTT11=
EXTT12=
EXTT13=
EXTT14=
EXTT15=
EXTT16=
EXTT17=
PLAYORDER=
